# xmcd
#
# Track frame offsets:
# 150
# 17137
# 31262
# 47512
# 64858
# 83040
# 97087
# 112030
# 126276
# 142569
# 157977
# 174357
# 189121
# 203095
# 219358
# 234690
# 248729
# 263580
# 280623
# 295754
#
# Disc length: 4156 seconds
#
#
# Revision: 0
# Processed by: cddbd v1.5.1PL2 Copyright (c) Steve Scherf et al.
# Submitted via: FreeRIP 2.941 
#
DISCID=08103a14
DTITLE=CHICO REY and PARANÁ - CHICO REY and PARANÁ 2004
DYEAR=2004
DGENRE=SERTANEJO
TTITLE0=UM DEGRAU NA ESCADA
TTITLE1=ALMA TRANSPARENTE
TTITLE2=CASAL NOTA MIL
TTITLE3=QUEM SERA SEU OUTRO AMOR
TTITLE4=DONA DA VERDADE
TTITLE5=LEÃO DOMADO
TTITLE6=ENTRE AMIGOS e WHISK
TTITLE7=AMOR REBELDE
TTITLE8=DE CARONA COM A SAUDADE
TTITLE9=TRANQUE A PORTA E ME BEIJA
TTITLE10=NUNCA FUI O HOMEN DO SEU CORAÇÃO
TTITLE11=BLUSA VERMELHA
TTITLE12=MERGULHADO NA SAUDADE
TTITLE13=ENCANTO E MAGIA
TTITLE14=CÉU DA BOCA
TTITLE15=LIGUEI PRA DIZER QUE TE AMO
TTITLE16=TELEFONE MAIS
TTITLE17=VOCÊ NÃO SABE AMAR
TTITLE18=BERRANTE DA SAUDADE
TTITLE19=PRIMAVERA DE AMOR
EXTD=
EXTT0=
EXTT1=
EXTT2=
EXTT3=
EXTT4=
EXTT5=
EXTT6=
EXTT7=
EXTT8=
EXTT9=
EXTT10=
EXTT11=
EXTT12=
EXTT13=
EXTT14=
EXTT15=
EXTT16=
EXTT17=
EXTT18=
EXTT19=
PLAYORDER=
